# xmcd CD database file
#
# Track frame offsets:
#	150
#	24129
#	45879
#	70243
#
# Disc length: 1222 seconds
#
# Revision: 1
# Processed by: cddbd v1.5.2PL0 Copyright (c) Steve Scherf et al.
# Submitted via: CDex 1.93
#
DISCID=2204c404
DTITLE=Dunkelsucht - Promo-CD
DYEAR=2019
DGENRE=Dark Wave
TTITLE0=Nachtzug
TTITLE1=Die Sterne sehen
TTITLE2=Oriental Dream
TTITLE3=Nachtzug[Nachtmahr ReMix]
EXTD=YEAR: 2019
EXTT0=
EXTT1=
EXTT2=
EXTT3=
PLAYORDER=
